HIERARCHY
ROOT Hips
{
    OFFSET   0.000000   0.000000   0.000000
    CHANNELS 6 Xposition Yposition Zposition Zrotation Xrotation Yrotation
    JOINT Chest
    {
        OFFSET   0.000000   8.007230   0.000000
        CHANNELS 3 Zrotation Xrotation Yrotation
        JOINT Chest2
        {
            OFFSET   0.000000  22.077100   0.000000
            CHANNELS 3 Zrotation Xrotation Yrotation
            JOINT Neck
            {
                OFFSET   0.000000  23.254800  -0.000021
                CHANNELS 3 Zrotation Xrotation Yrotation
                JOINT Head
                {
                    OFFSET   0.000000  14.370000   1.956610
                    CHANNELS 3 Zrotation Xrotation Yrotation
                    End Site
                    {
                        OFFSET   0.000000  19.566000   0.000000
                    }
                }
            }
            JOINT LeftCollar
            {
                OFFSET   3.911900  19.017000  -0.467063
                CHANNELS 3 Zrotation Xrotation Yrotation
                JOINT LeftShoulder
                {
                    OFFSET  10.383700   0.000000   0.000000
                    CHANNELS 3 Zrotation Xrotation Yrotation
                    JOINT LeftElbow
                    {
                        OFFSET  26.662100   0.001529   0.000325
                        CHANNELS 3 Zrotation Xrotation Yrotation
                        JOINT LeftWrist
                        {
                            OFFSET  28.869000  -0.000011  -0.000096
                            CHANNELS 3 Zrotation Xrotation Yrotation
                            JOINT LeftFinger0
                            {
                                OFFSET   2.044650  -2.323460   3.252850
                                CHANNELS 3 Zrotation Xrotation Yrotation
                                JOINT LeftFinger01
                                {
                                    OFFSET   3.088130   0.000000   0.000000
                                    CHANNELS 3 Zrotation Xrotation Yrotation
                                    JOINT LeftFinger02
                                    {
                                        OFFSET   2.639460   0.000000   0.000000
                                        CHANNELS 3 Zrotation Xrotation Yrotation
                                        End Site
                                        {
                                            OFFSET   2.582190   0.000000   0.000000
                                        }
                                    }
                                }
                            }
                            JOINT LeftFinger1
                            {
                                OFFSET   8.364480   0.000000   3.252850
                                CHANNELS 3 Zrotation Xrotation Yrotation
                                JOINT LeftFinger11
                                {
                                    OFFSET   4.646930   0.000000   0.000000
                                    CHANNELS 3 Zrotation Xrotation Yrotation
                                    JOINT LeftFinger12
                                    {
                                        OFFSET   2.323460   0.000000   0.000000
                                        CHANNELS 3 Zrotation Xrotation Yrotation
                                        End Site
                                        {
                                            OFFSET   2.273050   0.000000   0.000000
                                        }
                                    }
                                }
                            }
                            JOINT LeftFinger2
                            {
                                OFFSET   8.364480   0.000016   1.078090
                                CHANNELS 3 Zrotation Xrotation Yrotation
                                JOINT LeftFinger21
                                {
                                    OFFSET   5.111620   0.000000   0.000000
                                    CHANNELS 3 Zrotation Xrotation Yrotation
                                    JOINT LeftFinger22
                                    {
                                        OFFSET   2.788160   0.000017   0.000000
                                        CHANNELS 3 Zrotation Xrotation Yrotation
                                        End Site
                                        {
                                            OFFSET   2.727660   0.000000   0.000000
                                        }
                                    }
                                }
                            }
                            JOINT LeftFinger3
                            {
                                OFFSET   7.899780   0.000015  -1.078090
                                CHANNELS 3 Zrotation Xrotation Yrotation
                                JOINT LeftFinger31
                                {
                                    OFFSET   4.646920   0.000000   0.000000
                                    CHANNELS 3 Zrotation Xrotation Yrotation
                                    JOINT LeftFinger32
                                    {
                                        OFFSET   2.323470   0.000000   0.000000
                                        CHANNELS 3 Zrotation Xrotation Yrotation
                                        End Site
                                        {
                                            OFFSET   2.273050   0.000000   0.000000
                                        }
                                    }
                                }
                            }
                            JOINT LeftFinger4
                            {
                                OFFSET   7.435090   0.000000  -3.252850
                                CHANNELS 3 Zrotation Xrotation Yrotation
                                JOINT LeftFinger41
                                {
                                    OFFSET   3.717550   0.000000   0.000000
                                    CHANNELS 3 Zrotation Xrotation Yrotation
                                    JOINT LeftFinger42
                                    {
                                        OFFSET   1.858760   0.000000   0.000000
                                        CHANNELS 3 Zrotation Xrotation Yrotation
                                        End Site
                                        {
                                            OFFSET   1.818440   0.000000   0.000000
                                        }
                                    }
                                }
                            }
                        }
                    }
                }
            }
            JOINT RightCollar
            {
                OFFSET  -3.911900  19.017000  -0.467062
                CHANNELS 3 Zrotation Xrotation Yrotation
                JOINT RightShoulder
                {
                    OFFSET -10.383700   0.000015   0.000000
                    CHANNELS 3 Zrotation Xrotation Yrotation
                    JOINT RightElbow
                    {
                        OFFSET -26.662100   0.001341   0.000385
                        CHANNELS 3 Zrotation Xrotation Yrotation
                        JOINT RightWrist
                        {
                            OFFSET -28.869000   0.000025  -0.000080
                            CHANNELS 3 Zrotation Xrotation Yrotation
                            JOINT RightFinger0
                            {
                                OFFSET  -2.044650  -2.323490   3.252850
                                CHANNELS 3 Zrotation Xrotation Yrotation
                                JOINT RightFinger01
                                {
                                    OFFSET  -3.088130   0.000000   0.000000
                                    CHANNELS 3 Zrotation Xrotation Yrotation
                                    JOINT RightFinger02
                                    {
                                        OFFSET  -2.639460   0.000000   0.000000
                                        CHANNELS 3 Zrotation Xrotation Yrotation
                                        End Site
                                        {
                                            OFFSET  -2.582190   0.000000   0.000000
                                        }
                                    }
                                }
                            }
                            JOINT RightFinger1
                            {
                                OFFSET  -8.364480   0.000000   3.252850
                                CHANNELS 3 Zrotation Xrotation Yrotation
                                JOINT RightFinger11
                                {
                                    OFFSET  -4.646930   0.000000   0.000000
                                    CHANNELS 3 Zrotation Xrotation Yrotation
                                    JOINT RightFinger12
                                    {
                                        OFFSET  -2.323470   0.000000   0.000000
                                        CHANNELS 3 Zrotation Xrotation Yrotation
                                        End Site
                                        {
                                            OFFSET  -2.273050   0.000000   0.000000
                                        }
                                    }
                                }
                            }
                            JOINT RightFinger2
                            {
                                OFFSET  -8.364480   0.000000   1.078090
                                CHANNELS 3 Zrotation Xrotation Yrotation
                                JOINT RightFinger21
                                {
                                    OFFSET  -5.111610   0.000000   0.000000
                                    CHANNELS 3 Zrotation Xrotation Yrotation
                                    JOINT RightFinger22
                                    {
                                        OFFSET  -2.788160   0.000000   0.000000
                                        CHANNELS 3 Zrotation Xrotation Yrotation
                                        End Site
                                        {
                                            OFFSET  -2.727660   0.000000   0.000000
                                        }
                                    }
                                }
                            }
                            JOINT RightFinger3
                            {
                                OFFSET  -7.899780   0.000000  -1.078090
                                CHANNELS 3 Zrotation Xrotation Yrotation
                                JOINT RightFinger31
                                {
                                    OFFSET  -4.646920   0.000000   0.000000
                                    CHANNELS 3 Zrotation Xrotation Yrotation
                                    JOINT RightFinger32
                                    {
                                        OFFSET  -2.323470   0.000000   0.000000
                                        CHANNELS 3 Zrotation Xrotation Yrotation
                                        End Site
                                        {
                                            OFFSET  -2.273050   0.000000   0.000000
                                        }
                                    }
                                }
                            }
                            JOINT RightFinger4
                            {
                                OFFSET  -7.435090   0.000000  -3.252850
                                CHANNELS 3 Zrotation Xrotation Yrotation
                                JOINT RightFinger41
                                {
                                    OFFSET  -3.717550   0.000000   0.000000
                                    CHANNELS 3 Zrotation Xrotation Yrotation
                                    JOINT RightFinger42
                                    {
                                        OFFSET  -1.858770   0.000000   0.000000
                                        CHANNELS 3 Zrotation Xrotation Yrotation
                                        End Site
                                        {
                                            OFFSET  -1.818440   0.000000   0.000000
                                        }
                                    }
                                }
                            }
                        }
                    }
                }
            }
        }
    }
    JOINT LeftHip
    {
        OFFSET   9.783010   0.000000   0.000000
        CHANNELS 3 Zrotation Xrotation Yrotation
        JOINT LeftKnee
        {
            OFFSET   0.000070 -41.789100   0.000028
            CHANNELS 3 Zrotation Xrotation Yrotation
            JOINT LeftAnkle
            {
                OFFSET   0.000087 -41.133200  -0.000100
                CHANNELS 3 Zrotation Xrotation Yrotation
                JOINT LeftToe
                {
                    OFFSET   0.000000  -6.358960  14.674500
                    CHANNELS 3 Zrotation Xrotation Yrotation
                    End Site
                    {
                        OFFSET   0.000000   0.000000   3.913200
                    }
                }
            }
        }
    }
    JOINT RightHip
    {
        OFFSET  -9.783020   0.000000   0.000000
        CHANNELS 3 Zrotation Xrotation Yrotation
        JOINT RightKnee
        {
            OFFSET   0.000044 -41.789100  -0.000870
            CHANNELS 3 Zrotation Xrotation Yrotation
            JOINT RightAnkle
            {
                OFFSET  -0.000090 -41.133200  -0.000245
                CHANNELS 3 Zrotation Xrotation Yrotation
                JOINT RightToe
                {
                    OFFSET   0.000000  -6.358960  14.674500
                    CHANNELS 3 Zrotation Xrotation Yrotation
                    End Site
                    {
                        OFFSET   0.000000   0.000000   3.913200
                    }
                }
            }
        }
    }
}
MOTION
Frames: 6
Frame Time:   0.016667
  3.283150  89.889300  -0.129733  -1.365770 -16.319100   0.254283  -0.991417   9.684240   1.252460  -2.247660  19.342300   2.737690   0.506356   0.114809  -0.000915   0.833470   0.232825  -1.247440  -3.468460  -1.190910   3.257860 -70.379100   3.214050 -16.936200  30.854600 -20.978500 -70.109900 -12.900200  40.468500  17.536200  46.413600  35.372700 -74.253300 -17.824600  -0.006759   0.027967  -3.912320  -0.004744   0.014896 -17.002300   1.836170  -6.119890 -13.981000  -0.038755   0.014358  -9.786710  -0.027477   0.005394 -18.266100   0.828661  -2.608110 -18.284900  -0.043295   0.016612 -12.177800  -0.029665   0.007130 -14.414200  -0.648926   2.368850 -14.424200  -0.040651   0.017954  -9.606520  -0.028109   0.006996 -17.279700  -2.615920   8.310500 -26.209500  -0.051569   0.009962 -17.455500  -0.034099   0.001584   9.285860   2.091880   7.349820  70.863300  -5.139420  19.938800 -30.128100 -27.616400  68.592600  17.797100  44.059100 -38.698600 -46.372400  25.653700  54.702100  13.166200  -0.024115  -0.018439   1.583080  -0.003923  -0.001864  13.006700  -0.207250  -0.878648  10.650300  -0.007921  -0.003121   7.455220  -0.005754  -0.002127  12.310700  -0.728621  -3.147190  12.329500  -0.036538  -0.014889   8.211460  -0.025451  -0.000000  14.130500  -1.096070  -4.220790  14.169600  -0.041372  -0.002190   9.436940  -0.028532  -0.000000  16.068700  -1.456800  -4.956610  24.200300  -0.052862  -0.007171  16.117400  -0.035205   0.005167  -0.780051  16.294700   2.491440  -0.398419   1.105520   9.161310  -2.553950  -3.519240   7.238560  -0.000000   0.000000   0.000000   2.443270  12.409600  -8.992200  -2.670120  12.150000  -8.069840  -7.648210  -4.041380   0.745877  -0.000000   0.000000   0.000000
  3.260350  89.906600  -0.136212  -1.427410 -15.971300   0.203057  -0.963726   9.508550   1.223340  -2.182470  18.992400   2.667580   0.540974   0.046309   0.000338   0.888856   0.093661  -1.162360  -3.420460  -1.226290   3.358320 -70.518900   2.861500 -16.495200  29.979700 -19.725500 -69.411700 -10.907000  38.030400  14.083200  45.639000  35.017300 -74.222300 -19.160300  -0.006825   0.024701  -4.580160  -0.004810   0.014938 -18.378600   2.158640  -6.506000 -15.135100  -0.022909   0.012245 -10.594600  -0.017394   0.005455 -19.699000   0.956652  -2.687270 -19.726300  -0.028589   0.013308 -13.137800  -0.020645   0.009429 -15.735100  -0.623843   2.159310 -15.750300  -0.022260   0.013737 -10.489700  -0.016307   0.007083 -18.449000  -2.775610   8.210680 -27.981600  -0.030925   0.008784 -18.635800  -0.021377   0.001743   9.348860   1.996060   7.345000  70.364900  -4.846310  19.059300 -29.564200 -26.717600  67.494000  13.671000  43.010200 -34.403000 -45.457400  25.373800  56.346300  14.201100  -0.024369  -0.022861   2.100550  -0.003760  -0.001892  14.473600  -0.120137  -0.390976  11.852800  -0.002336  -0.003117   8.296940  -0.002045  -0.002134  14.286500  -0.720213  -2.760860  14.306500  -0.022124  -0.014272   9.528140  -0.016188   0.000000  16.236900  -1.099850  -3.707480  16.276100  -0.022150  -0.002216  10.839900  -0.016309  -0.000000  17.988300  -1.493810  -4.553090  27.079300  -0.034843  -0.014000  18.034800  -0.025059  -0.001220  -0.705697  15.978600   2.456030  -0.399444   1.026950   9.194380  -2.564240  -3.475930   7.261740   0.000000   0.000000   0.000000   2.535140  12.248800  -9.012900  -2.683170  11.764100  -8.120320  -7.660990  -3.866900   0.883939  -0.000000   0.000000   0.000000
  3.229570  89.927300  -0.147137  -1.490310 -15.608600   0.147980  -0.947295   9.336840   1.179820  -2.138700  18.650400   2.571120   0.592238  -0.031958   0.001730   0.972583  -0.064847  -1.023560  -3.388630  -1.293700   3.472060 -70.556100   2.539520 -16.020700  28.741000 -18.540000 -68.738400  -9.836750  35.720000  11.532200  44.789300  34.504700 -74.070000 -20.234900  -0.006887   0.023626  -5.117410  -0.004852   0.014785 -19.736400   2.340060  -6.464800 -16.261400  -0.019988   0.016599 -11.383000  -0.018158   0.005508 -21.103700   0.877382  -2.378030 -21.137500  -0.025620   0.020094 -14.077600  -0.020834   0.012226 -16.918200  -0.706783   2.305630 -16.944000  -0.018347   0.018148 -11.284700  -0.015096   0.007130 -19.442400  -3.029050   8.442120 -29.511600  -0.028652   0.013738 -19.654800  -0.021775   0.001929   9.429590   1.875780   7.385000  69.716200  -4.398860  18.219000 -28.604600 -25.684200  66.198100   9.373630  41.587500 -30.278200 -44.433600  25.109000  57.304200  15.686100  -0.024538  -0.024499   2.843080  -0.003595  -0.001909  15.715400  -0.231876  -0.752277  12.863600  -0.005600  -0.003105   9.004530  -0.002045  -0.002133  16.192400  -0.869657  -2.998360  16.215900  -0.013613  -0.012027  10.799800  -0.009622   0.000000  18.225300  -1.288780  -3.930730  18.271700  -0.013136  -0.002230  12.169000  -0.009685   0.000000  19.926600  -1.772820  -4.858770  30.005900  -0.023924  -0.016508  19.983900  -0.018103  -0.001225  -0.628886  15.637500   2.437320  -0.399634   0.963531   9.208810  -2.581370  -3.435620   7.290340  -0.000000   0.000000   0.000000   2.614270  12.072300  -9.014780  -2.681830  11.380900  -8.169910  -7.666980  -3.692840   1.012190  -0.000000   0.000000  -0.000000
  3.192830  89.948900  -0.154027  -1.550980 -15.247900   0.082519  -0.937719   9.171850   1.145960  -2.105130  18.321300   2.495010   0.656167  -0.120603   0.003272   1.077550  -0.244298  -0.920933  -3.366970  -1.373310   3.537950 -70.495700   2.235040 -15.499400  27.273400 -17.365100 -68.040500  -9.300190  33.311800   9.601650  44.060100  34.124400 -73.829800 -21.181000  -0.006920   0.023420  -5.590470  -0.004879   0.014413 -21.022500   2.402940  -6.281230 -17.319500  -0.019120   0.021640 -12.123600  -0.018922   0.005553 -22.421700   0.674010  -1.726030 -22.454300  -0.024936   0.028724 -14.954600  -0.021138   0.013829 -17.998100  -0.879112   2.637260 -18.037100  -0.017289   0.024242 -12.012700  -0.014769   0.007144 -20.338200  -3.323770   8.842200 -30.910400  -0.028060   0.020782 -20.586400  -0.022408   0.002215   9.524400   1.744780   7.424990  69.023900  -3.919330  17.404900 -27.314800 -24.531700  64.867400   5.717290  39.809200 -26.810900 -43.319000  24.746900  58.033000  17.178000  -0.024562  -0.024966   3.589030  -0.003428  -0.001925  16.835800  -0.343588  -1.113590  13.774800  -0.008863  -0.003096   9.642340  -0.002045  -0.002130  17.842100  -1.090210  -3.338480  17.874100  -0.007745  -0.009395  11.904100  -0.006222   0.000000  19.941500  -1.578750  -4.286200  20.002900  -0.008298  -0.002248  13.322000  -0.006830   0.000000  21.678700  -2.159920  -5.350340  32.672800  -0.016121  -0.017660  21.760100  -0.012759  -0.001226  -0.555215  15.290700   2.429860  -0.396314   0.911285   9.219710  -2.602230  -3.397490   7.324740  -0.000000   0.000000   0.000000   2.685910  11.893000  -9.009870  -2.674570  11.003900  -8.215740  -7.673140  -3.522140   1.139440  -0.000000   0.000000   0.000000
  3.150810  89.968900  -0.154005  -1.604280 -14.907300  -0.000764  -0.934302   9.019230   1.138240  -2.092270  18.016400   2.473280   0.730968  -0.221146   0.004795   1.200560  -0.448024  -0.906716  -3.349230  -1.452180   3.503670 -70.373000   1.970240 -14.915400  25.677700 -16.205700 -67.285700  -9.124510  30.626300   8.259940  43.683600  34.084200 -73.473300 -21.866800  -0.006915   0.025361  -5.933360  -0.004891   0.014151 -22.220700   2.372150  -5.853060 -18.292400  -0.018326   0.022441 -12.804600  -0.017823   0.005590 -23.684900   0.339139  -0.850402 -23.699100  -0.024633   0.030876 -15.783600  -0.021410   0.013475 -19.018000  -1.094120   3.108200 -19.069700  -0.016598   0.026558 -12.700500  -0.014558   0.007102 -21.175400  -3.614620   9.204760 -32.220800  -0.027717   0.024190 -21.459100  -0.022950   0.002753   9.641640   1.612820   7.399400  68.360700  -3.555750  16.625300 -25.666200 -23.282800  63.685700   3.741990  37.881900 -24.696900 -42.018100  24.011900  58.890500  18.246300  -0.022686  -0.025348   4.123200  -0.003261  -0.001950  17.956400  -0.336534  -1.048990  14.691300  -0.007632  -0.003111  10.283900  -0.002045  -0.002121  18.963700  -1.196060  -3.466110  19.003100  -0.005498  -0.008000  12.656000  -0.006223  -0.000000  21.171300  -1.762990  -4.515790  21.247100  -0.006591  -0.002287  14.150500  -0.006831  -0.000000  22.970700  -2.435860  -5.697450  34.647700  -0.012760  -0.019379  23.075400  -0.010337  -0.001226  -0.492096  14.938000   2.425310  -0.390898   0.888208   9.234130  -2.625680  -3.361960   7.372210  -0.000000   0.000000   0.000000   2.747740  11.720900  -9.001410  -2.667300  10.642200  -8.255510  -7.686520  -3.359780   1.277190   0.000000   0.000000   0.000000
  3.105940  89.988200  -0.153849  -1.653360 -14.586700  -0.100223  -0.932105   8.877800   1.136770  -2.083010  17.733700   2.466870   0.807270  -0.333617   0.006368   1.326370  -0.675946  -0.904717  -3.340320  -1.528940   3.430680 -70.215300   1.726380 -14.296800  23.962700 -14.965900 -66.488700  -9.133430  27.822700   7.323330  43.587200  34.249600 -73.171900 -22.448200  -0.006910   0.027301  -6.224100  -0.004893   0.013192 -23.259900   2.311430  -5.372030 -19.131900  -0.016606   0.022555 -13.392300  -0.015030   0.005629 -24.816200  -0.036343   0.054566 -24.828200  -0.024331   0.031183 -16.535600  -0.021567   0.012443 -19.941400  -1.338530   3.641900 -20.006400  -0.015262   0.027193 -13.324300  -0.014154   0.006985 -21.943900  -3.904310   9.565160 -33.428700  -0.027185   0.025507 -22.263600  -0.023257   0.003303   9.757200   1.487130   7.360010  67.780800  -3.261810  15.879800 -23.862700 -22.002300  62.571000   2.739060  35.705700 -23.273300 -40.777500  23.299600  59.709800  19.067800  -0.018316  -0.025412   4.533930  -0.003093  -0.001976  18.913400  -0.329479  -0.984301  15.476300  -0.006401  -0.003126  10.833400  -0.002046  -0.002115  19.767100  -1.289860  -3.581450  19.813500  -0.004869  -0.006932  13.195800  -0.006225  -0.000000  22.104700  -1.946160  -4.764700  22.195100  -0.006119  -0.002330  14.781900  -0.006832  -0.000000  24.014800  -2.705680  -6.039740  36.251800  -0.011107  -0.020310  24.143700  -0.008988  -0.001226  -0.435566  14.635700   2.421420  -0.381347   0.838190   9.266100  -2.648820  -3.329370   7.421440   0.000000   0.000000  -0.000000   2.804200  11.559700  -8.988110  -2.660040  10.294300  -8.289260  -7.704840  -3.204610   1.420340   0.000000   0.000000   0.000000
